<?xml version="1.0" standalone="no"?>
<!DOCTYPE svg PUBLIC "-//W3C//DTD SVG 20010904//EN"
 "http://www.w3.org/TR/2001/REC-SVG-20010904/DTD/svg10.dtd">
<svg version="1.0" xmlns="http://www.w3.org/2000/svg"
 width="700.000000pt" height="700.000000pt" viewBox="0 0 700.000000 700.000000"
 preserveAspectRatio="xMidYMid meet">
<metadata>
Created by potrace 1.14, written by Peter Selinger 2001-2017
</metadata>
<g transform="translate(0.000000,700.000000) scale(0.100000,-0.100000)"
fill="#000000" stroke="none">
<path d="M1917 6409 c-241 -25 -446 -126 -622 -304 -113 -114 -179 -215 -231
-353 -53 -141 -64 -217 -64 -433 l0 -192 -47 -68 c-54 -80 -15 -70 -377 -99
-139 -12 -256 -26 -264 -32 -42 -36 -33 -102 17 -115 24 -6 441 21 501 33 l25
4 0 -84 c0 -77 -2 -86 -20 -90 -11 -2 -125 -25 -254 -51 -129 -26 -245 -51
-258 -56 -30 -11 -46 -51 -33 -84 20 -52 36 -52 331 9 150 30 274 55 275 53 1
-1 23 -32 48 -70 31 -45 42 -69 34 -72 -314 -114 -585 -219 -600 -231 -37 -34
-9 -114 41 -114 11 0 153 50 316 110 164 61 302 110 306 110 16 0 9 -193 -11
-315 -11 -66 -37 -181 -59 -255 -176 -606 -170 -1145 15 -1549 l34 -74 -10
-88 c-20 -172 -67 -336 -127 -437 -34 -59 -108 -139 -148 -159 -16 -9 -69 -20
-116 -24 -194 -18 -310 -108 -354 -274 -8 -33 -19 -61 -24 -63 -5 -2 -47 -29
-93 -61 -135 -93 -176 -176 -125 -251 66 -99 303 -136 799 -127 311 6 390 16
578 78 189 62 326 145 463 278 97 94 167 191 222 307 19 40 41 74 48 74 6 0
50 -7 97 -14 47 -8 132 -17 190 -20 58 -4 137 -9 177 -12 l72 -6 41 -68 c58
-98 167 -227 246 -292 327 -266 702 -358 1335 -329 417 19 572 58 620 157 19
40 20 51 10 83 -16 56 -77 119 -179 185 -84 54 -91 62 -97 98 -11 61 -71 172
-116 213 -65 58 -154 95 -251 103 l-83 8 95 18 c182 34 407 87 703 167 349 94
422 109 525 109 88 0 131 -19 157 -69 45 -89 -5 -190 -221 -448 -151 -180
-209 -268 -225 -338 -40 -178 110 -267 494 -294 551 -40 995 183 1188 593 62
132 82 220 83 361 1 144 -21 232 -89 364 -66 126 -131 206 -283 349 -197 183
-271 261 -380 402 -177 228 -326 368 -547 512 -397 260 -950 447 -1500 508
-303 33 -482 95 -660 227 -44 33 -104 85 -133 117 -61 67 -117 146 -104 146 5
0 75 -25 156 -55 80 -30 155 -55 166 -55 54 0 80 83 37 117 -13 10 -120 53
-238 97 -118 43 -219 84 -225 90 -29 28 -71 186 -50 186 2 0 124 -25 272 -55
148 -31 279 -53 291 -50 48 12 65 84 27 115 -7 7 -131 36 -274 65 -144 29
-263 55 -265 57 -2 2 -5 39 -6 83 -1 63 1 80 12 79 8 0 120 -9 249 -19 129
-10 247 -15 261 -12 50 13 59 79 16 115 -8 7 -133 22 -301 36 -158 13 -289 26
-290 28 -1 1 -20 28 -42 58 l-39 55 -6 230 c-5 190 -10 244 -27 308 -116 424
-466 722 -903 767 -56 5 -106 9 -113 9 -6 -1 -46 -5 -89 -10z m338 -164 c143
-40 306 -137 406 -242 173 -182 249 -379 249 -647 l0 -123 -58 28 c-104 49
-164 60 -352 65 -163 5 -179 7 -235 32 -58 26 -65 27 -255 27 -190 0 -197 -1
-255 -27 -55 -25 -73 -27 -225 -31 -171 -5 -247 -20 -342 -68 -21 -11 -40 -19
-44 -19 -3 0 -4 71 -2 158 4 136 9 168 33 242 36 112 76 189 140 276 126 169
318 293 520 338 92 20 333 15 420 -9z m-595 -1083 c0 -36 52 -121 104 -170 52
-49 140 -102 171 -102 13 0 15 -23 15 -166 0 -163 0 -166 -26 -200 -32 -42
-107 -98 -175 -130 -110 -54 -251 -67 -381 -38 l-71 16 54 22 c64 25 89 60 73
103 -5 15 -22 34 -38 42 -26 12 -37 10 -140 -28 l-111 -42 -42 48 c-24 26 -43
50 -43 54 0 4 66 19 147 35 169 33 196 47 191 102 -2 24 -11 41 -30 55 l-27
20 -161 -33 c-88 -18 -164 -30 -168 -26 -9 10 -5 118 5 127 5 3 80 12 168 18
183 14 208 23 213 83 4 52 -35 81 -98 74 -25 -3 -79 -8 -120 -11 l-75 -6 45
42 c99 91 210 127 393 128 116 1 127 -1 127 -17z m1025 3 c32 -9 83 -28 112
-43 61 -31 158 -105 144 -110 -5 -2 -61 2 -123 7 -104 10 -115 10 -138 -8 -19
-14 -25 -27 -25 -56 0 -62 23 -72 210 -86 88 -6 164 -15 169 -19 4 -5 10 -37
13 -73 l6 -64 -172 35 -171 36 -28 -21 c-37 -27 -41 -75 -10 -105 18 -18 55
-29 171 -52 81 -16 147 -32 147 -36 0 -5 -19 -29 -42 -55 l-43 -46 -111 42
c-103 38 -114 40 -140 28 -16 -8 -33 -27 -38 -42 -15 -43 8 -77 73 -102 l53
-22 -48 -14 c-73 -21 -255 -18 -324 5 -94 32 -167 76 -225 136 l-55 59 0 163
0 164 56 27 c100 49 214 182 214 249 0 16 11 18 133 18 87 0 153 -5 192 -15z
m-584 -848 c-16 -16 -97 -20 -136 -7 l-38 13 49 43 49 43 42 -42 c26 -25 39
-45 34 -50z m925 -48 c51 -19 57 -25 96 -96 116 -212 291 -384 493 -485 154
-77 300 -118 520 -143 684 -79 1251 -290 1660 -618 106 -86 219 -205 337 -357
108 -139 202 -239 391 -414 147 -136 212 -217 267 -331 109 -226 82 -466 -80
-705 -66 -97 -65 -97 -61 76 4 187 -13 305 -70 477 -38 117 -115 278 -151 317
-29 31 -65 36 -96 13 -41 -30 -40 -69 3 -140 125 -210 191 -504 166 -738 -6
-57 -18 -136 -27 -174 -15 -69 -16 -71 -67 -100 -113 -64 -292 -112 -472 -126
l-79 -6 50 53 c233 246 349 598 314 951 -13 135 -27 162 -85 162 -29 0 -42 -6
-58 -26 -18 -25 -18 -33 -8 -91 25 -143 7 -360 -41 -508 -24 -75 -86 -204
-130 -269 -17 -25 -78 -92 -134 -148 -117 -117 -109 -114 -246 -83 -86 19
-141 40 -153 60 -20 32 39 122 211 326 120 143 174 221 217 312 28 59 32 77
32 152 0 77 -3 90 -30 135 -16 28 -42 82 -56 122 -53 142 -131 228 -247 275
-49 19 -76 22 -187 23 -154 0 -194 -8 -580 -110 -154 -41 -338 -88 -410 -104
-162 -37 -416 -77 -437 -69 -17 7 -44 131 -55 253 -5 64 -11 84 -29 102 -30
30 -69 29 -100 -2 -24 -24 -25 -30 -19 -93 47 -502 269 -842 550 -842 105 0
203 -47 242 -117 l23 -40 -58 13 c-31 8 -98 17 -148 20 -90 7 -90 7 -112 -21
-28 -35 -28 -58 1 -89 18 -21 36 -27 112 -35 173 -20 305 -71 434 -166 36 -26
60 -50 55 -55 -15 -15 -117 -38 -226 -52 -143 -18 -736 -18 -838 0 -310 56
-521 151 -697 315 -175 163 -287 385 -335 662 -17 102 -19 147 -15 305 3 102
9 199 12 217 6 26 2 36 -18 57 -32 32 -71 33 -101 3 -18 -18 -25 -42 -34 -111
-7 -49 -14 -91 -17 -94 -9 -10 -157 112 -213 175 -133 150 -216 321 -299 617
-109 392 -145 477 -239 566 -62 59 -168 112 -271 136 -83 20 -261 14 -341 -11
-30 -9 -55 -15 -56 -13 -2 2 14 65 35 141 42 150 69 310 69 403 0 33 3 75 6
95 l6 36 63 -23 c72 -26 220 -49 274 -41 36 4 36 4 68 -62 60 -123 156 -208
284 -251 96 -33 219 -26 312 18 92 43 187 134 232 224 l34 68 98 5 c111 5 217
31 301 75 61 32 70 32 158 -1z m-1212 -38 c9 -10 45 -31 79 -47 110 -49 235
-34 329 40 27 21 35 22 62 13 17 -5 32 -11 34 -13 9 -6 -44 -90 -79 -125 -146
-146 -368 -118 -481 60 -35 56 -35 64 0 78 38 15 37 15 56 -6z m-369 -766 c91
-19 185 -66 226 -113 53 -60 93 -163 164 -417 89 -322 137 -442 240 -601 90
-138 226 -269 372 -358 l61 -38 7 -71 c12 -140 51 -333 83 -416 5 -12 -12 -13
-116 -8 -317 17 -632 98 -849 218 -516 285 -736 865 -617 1624 9 55 20 105 26
112 13 16 109 52 183 68 80 18 136 18 220 0z m4008 -1463 c40 -18 117 -91 117
-112 0 -6 -31 -10 -74 -10 -100 0 -199 -20 -477 -95 -370 -101 -620 -159 -886
-205 -96 -16 -110 -16 -125 -3 -14 13 -88 143 -88 156 0 2 26 8 58 12 191 23
423 74 812 178 186 50 355 89 435 101 60 9 186 -3 228 -22z m-4005 -400 c120
-80 256 -144 409 -195 l123 -40 -42 -79 c-145 -271 -385 -439 -738 -515 -207
-45 -769 -43 -972 3 -37 9 -70 19 -73 24 -7 12 109 94 177 125 70 32 186 62
277 71 60 5 75 11 91 32 25 32 25 53 -1 86 -18 23 -28 26 -78 26 -53 0 -140
-12 -183 -26 -52 -16 20 72 80 98 24 11 84 24 134 28 112 11 176 40 250 114
91 92 169 245 209 411 12 50 23 96 25 103 2 7 52 -36 111 -96 65 -65 145 -133
201 -170z"/>
<path d="M1500 5727 c-103 -33 -178 -197 -117 -255 46 -43 110 -19 122 45 9
51 31 73 71 73 37 0 74 -37 74 -76 0 -25 43 -64 70 -64 10 0 29 9 44 21 21 16
26 29 26 62 -1 143 -146 240 -290 194z"/>
<path d="M2360 5727 c-104 -33 -179 -197 -117 -255 46 -43 110 -19 122 45 9
51 31 73 71 73 37 0 74 -37 74 -76 0 -25 43 -64 70 -64 10 0 29 9 44 21 21 16
26 29 26 62 -1 143 -146 240 -290 194z"/>
</g>
</svg>
